<?xml version="1.0" encoding="utf-8"?>
<!-- Generator: Adobe Illustrator 24.3.0, SVG Export Plug-In . SVG Version: 6.00 Build 0)  -->
<svg version="1.1" id="Layer_1" xmlns="http://www.w3.org/2000/svg" xmlns:xlink="http://www.w3.org/1999/xlink" x="0px" y="0px"
	 viewBox="0 0 1499.3 1351.6" style="enable-background:new 0 0 1499.3 1351.6;" xml:space="preserve">
<style type="text/css">
	.st0{fill-rule:evenodd;clip-rule:evenodd;fill:#3B4755;}
	.st1{fill-rule:evenodd;clip-rule:evenodd;fill:#FFFFFF;}
	.st2{fill-rule:evenodd;clip-rule:evenodd;fill:#6B7A8D;}
</style>
<path class="st0" d="M1496.2,1308.6l-98.7-200.1V77.7c0-42.9-34.7-77.7-77.6-77.7c0,0,0,0,0,0H77.6C34.7,0,0,34.8,0,77.7v1196.2
	c0,42.9,34.7,77.7,77.6,77.7h1391.9c16.5,0,29.8-13.4,29.8-29.8C1499.3,1317.2,1498.2,1312.7,1496.2,1308.6z"/>
<path id="Scan_or_paste_in_Sphinx" class="st1" d="M230.4,755.9c-4.7,3.6-11.5,5.4-20.3,5.4c-4,0-8-0.5-11.8-1.4
	c-3.6-0.9-6.9-2.4-9.9-4.5c-6.2-4.3-9.8-11.4-9.5-18.9H162c0,4,0.6,7.9,1.9,11.7c1.2,3.5,3,6.7,5.3,9.6c2.3,2.9,5,5.4,8,7.5
	c3.1,2.2,6.4,4,9.9,5.4c3.6,1.5,7.4,2.6,11.2,3.3c3.9,0.7,7.8,1.1,11.7,1.1c6.1,0.1,12.3-0.7,18.2-2.4c5-1.4,9.8-3.7,14-6.8
	c7.8-5.8,12.3-15,12.1-24.8c0.1-4.5-0.8-9.1-2.5-13.3c-1.7-4-4.3-7.6-7.6-10.6c-3.9-3.4-8.2-6.3-13-8.4c-6-2.8-12.3-5-18.7-6.8
	c-4.6-1.2-9.1-2.7-13.5-4.5c-3.3-1.3-6.4-3-9.2-5.1c-2.2-1.6-4-3.7-5.3-6.1c-1.1-2.3-1.7-4.8-1.7-7.3c0-2.8,0.5-5.6,1.6-8.2
	c1.1-2.5,2.7-4.7,4.8-6.5c2.4-2,5.2-3.4,8.2-4.3c3.8-1.1,7.7-1.6,11.7-1.6c4.2-0.1,8.4,0.5,12.4,1.8c3.2,1.1,6.2,2.8,8.7,5.1
	c2.3,2.2,4.1,4.9,5.2,7.8c1.2,3.2,1.7,6.5,1.7,9.9H254c0-4.9-1-9.8-3-14.4c-2-4.7-4.9-8.9-8.7-12.3c-4.1-3.7-8.9-6.6-14.1-8.5
	c-6.1-2.2-12.6-3.3-19.1-3.2c-6-0.1-12,0.8-17.7,2.6c-4.9,1.6-9.6,4-13.6,7.3c-3.7,3-6.7,6.7-8.8,11c-2.1,4.3-3.1,9-3.1,13.7
	c-0.1,4.6,0.9,9.1,2.9,13.2c2,3.9,4.8,7.4,8.2,10.2c4,3.2,8.3,5.9,13,7.9c5.5,2.5,11.2,4.5,17.1,6.1c5,1.4,10,3.1,14.8,5.1
	c3.3,1.3,6.5,3.1,9.3,5.3c2.1,1.6,3.8,3.8,4.8,6.2c0.9,2.5,1.4,5.2,1.4,7.8C237.7,746.9,235,752.4,230.4,755.9z M298.5,758.8
	c-3.2-1.9-6-4.6-7.9-7.8c-2-3.3-3.5-7-4.2-10.9c-0.8-4.1-1.2-8.2-1.2-12.3v-3.7c0-4.1,0.4-8.2,1.2-12.2c0.7-3.9,2.2-7.6,4.2-10.9
	c2-3.2,4.7-5.9,7.9-7.8c3.8-2.1,8.1-3.1,12.4-3c3,0,6,0.5,8.9,1.7c5.1,2.1,9.2,6.1,11.4,11.1c1.1,2.6,1.8,5.3,2,8.2h15.3
	c-0.2-4.7-1.3-9.2-3.1-13.5c-1.8-4.1-4.4-7.8-7.7-10.9c-3.4-3.1-7.4-5.6-11.7-7.2c-4.8-1.8-9.9-2.7-15-2.6
	c-6.4-0.2-12.7,1.1-18.5,3.8c-5.1,2.4-9.5,5.9-13.1,10.2c-3.6,4.4-6.2,9.5-7.8,15c-1.7,5.9-2.6,11.9-2.6,18.1v3.7
	c0,6.1,0.8,12.2,2.6,18.1c1.6,5.5,4.2,10.6,7.8,15c3.6,4.4,8,7.9,13.1,10.2c5.8,2.6,12.1,3.9,18.5,3.8c4.8,0,9.6-0.8,14.2-2.6
	c4.3-1.6,8.2-3.9,11.7-6.9c3.3-2.8,6.1-6.2,8.2-10c2-3.7,3.2-7.8,3.4-12h-15.3c-0.2,2.6-1,5-2.2,7.3c-1.2,2.2-2.9,4.2-4.9,5.8
	c-2.1,1.7-4.4,3-6.9,3.8C312.4,762.7,304.9,762.2,298.5,758.8z M441.9,773.2v-1.4c-1.2-2.9-2-6-2.5-9.1c-0.5-3.3-0.8-6.7-0.8-10.1
	v-43.9c0.1-4.8-0.8-9.5-2.6-13.9c-1.6-3.8-4.1-7.2-7.2-9.9c-3.2-2.7-7-4.8-11.1-5.9c-4.6-1.3-9.4-2-14.2-2
	c-5.3-0.1-10.5,0.8-15.5,2.5c-4.3,1.5-8.3,3.6-11.8,6.5c-3.1,2.4-5.7,5.5-7.5,8.9c-1.7,3.1-2.6,6.5-2.7,10h16.2c0-2,0.5-3.9,1.5-5.7
	c1-1.9,2.4-3.5,4.1-4.8c1.9-1.4,4.1-2.6,6.4-3.3c2.7-0.8,5.5-1.2,8.3-1.2c6.6,0,11.5,1.7,14.9,5s5.1,7.8,5.1,13.5v7.4h-16
	c-5.9-0.1-11.8,0.6-17.5,2c-4.8,1.1-9.3,3.1-13.4,5.9c-3.6,2.5-6.5,5.8-8.5,9.7c-2,4.2-3.1,8.8-3,13.4c0,3.8,0.7,7.5,2.3,10.9
	c1.5,3.4,3.7,6.4,6.4,8.9c2.9,2.6,6.3,4.6,10,5.9c4.2,1.5,8.7,2.2,13.1,2.2c2.8,0,5.6-0.3,8.3-0.9c2.5-0.6,5-1.4,7.3-2.5
	c2.2-1,4.3-2.3,6.2-3.7c1.8-1.4,3.5-2.9,5.1-4.5c0.2,1.9,0.5,3.8,0.9,5.5c0.3,1.5,0.7,3,1.4,4.4L441.9,773.2L441.9,773.2z
	 M390.4,759.7c-2.1-0.8-4-1.9-5.7-3.4c-1.5-1.4-2.7-3.2-3.4-5.1c-0.8-2-1.2-4.2-1.1-6.4c-0.2-5.4,2.7-10.5,7.5-13
	c5-2.9,12.1-4.3,21.4-4.3h13.4v19.4c-0.9,1.9-2.2,3.7-3.6,5.2c-1.6,1.7-3.4,3.2-5.5,4.5c-2.2,1.3-4.5,2.4-7,3.2
	c-2.7,0.8-5.4,1.2-8.2,1.2C395.5,761,392.9,760.6,390.4,759.7z M463.9,678.9v94.4H480V706c2.1-4.4,5.3-8.2,9.2-11
	c4-2.8,8.9-4.3,13.8-4.2c2.8,0,5.5,0.3,8.2,1.1c2.2,0.7,4.3,1.9,5.9,3.6c1.7,1.8,2.9,4,3.6,6.3c0.9,3,1.3,6.2,1.2,9.4v62h16.1v-61.8
	c0.1-5.3-0.6-10.6-2.1-15.7c-1.2-4-3.3-7.6-6.1-10.6c-2.6-2.8-5.9-4.8-9.5-6c-4-1.3-8.2-1.9-12.5-1.9c-5.6-0.1-11.1,1.2-16,3.6
	c-4.7,2.4-8.9,5.8-12.2,10l-0.5-11.9L463.9,678.9L463.9,678.9z M602.4,727.1c-0.1,6.5,1,12.9,3,19.1c1.9,5.6,4.8,10.7,8.6,15.2
	c3.7,4.3,8.3,7.7,13.5,10c11.4,4.8,24.3,4.8,35.8,0c5.2-2.3,9.8-5.7,13.5-10c3.8-4.4,6.7-9.6,8.5-15.2c2-6.1,3-12.6,3-19.1v-1.9
	c0.1-6.5-0.9-12.9-3-19.1c-1.8-5.6-4.7-10.8-8.5-15.2c-3.7-4.3-8.4-7.8-13.6-10.1c-5.7-2.5-11.8-3.8-18-3.7
	c-6.1-0.1-12.2,1.2-17.8,3.7c-5.2,2.4-9.8,5.8-13.5,10.1c-3.8,4.5-6.7,9.6-8.5,15.2c-2.1,6.1-3.1,12.6-3,19.1L602.4,727.1
	L602.4,727.1z M618.6,725.2c0-4.5,0.5-9,1.7-13.3c1-4,2.7-7.7,5-11.1c2.2-3.1,5-5.7,8.3-7.6c3.6-1.9,7.6-2.9,11.6-2.8
	c4.1-0.1,8.2,0.9,11.8,2.8c3.3,1.9,6.2,4.5,8.4,7.6c2.3,3.4,4,7.1,5.1,11.1c1.2,4.3,1.7,8.8,1.7,13.3v1.9c0,4.5-0.5,9-1.7,13.3
	c-1,3.9-2.7,7.7-5,11c-2.2,3.1-5,5.7-8.4,7.5c-7.4,3.7-16.1,3.7-23.4,0c-3.3-1.8-6.2-4.4-8.4-7.5c-2.3-3.3-4-7.1-5-11
	c-1.1-4.4-1.7-8.8-1.7-13.3L618.6,725.2L618.6,725.2z M754.2,678.3c-1-0.4-2.1-0.7-3.1-0.8c-1.3-0.2-2.7-0.4-4-0.4
	c-4.7-0.1-9.3,1-13.3,3.4c-3.7,2.3-6.9,5.5-9.2,9.2l-0.3-10.9h-15.7v94.4h16.1v-67c1.6-4,4.4-7.4,7.9-9.9c3.5-2.4,8.1-3.7,13.7-3.7
	c1.5,0,2.9,0,4.1,0.1c1.2,0.1,2.5,0.2,3.9,0.5L754.2,678.3L754.2,678.3z M892.9,725.3c0.1-6.6-0.7-13.2-2.4-19.7
	c-1.4-5.5-3.8-10.6-7.1-15.2c-3-4.1-7-7.5-11.6-9.8c-4.9-2.4-10.3-3.6-15.7-3.5c-5.4-0.1-10.8,1-15.8,3.1c-4.5,2.1-8.5,5.2-11.6,9.1
	l-0.8-10.5h-14.7v130.6h16.1v-45.4c3.2,3.5,7.1,6.3,11.5,8.1c5,2,10.2,2.9,15.6,2.8c10.7,0.3,20.8-4.8,27-13.6
	c3.3-4.6,5.7-9.7,7.1-15.2c1.7-6.2,2.5-12.7,2.4-19.1L892.9,725.3L892.9,725.3z M876.8,727.1c0,4.5-0.5,9-1.5,13.4
	c-0.9,3.9-2.4,7.7-4.6,11c-2,3.1-4.7,5.6-7.9,7.5c-3.4,1.9-7.3,2.9-11.3,2.8c-2.6,0-5.1-0.3-7.6-1c-2.2-0.6-4.2-1.5-6.1-2.7
	c-1.8-1.1-3.4-2.5-4.8-4.1c-1.4-1.6-2.6-3.3-3.7-5.2v-45.1c1-1.9,2.3-3.6,3.7-5.2c2.9-3.3,6.6-5.7,10.9-6.8c2.4-0.7,4.9-1,7.5-1
	c4-0.1,7.9,0.8,11.4,2.7c3.2,1.8,5.9,4.4,7.9,7.5c2.2,3.3,3.7,7,4.6,10.9c1,4.4,1.5,8.8,1.5,13.3L876.8,727.1L876.8,727.1z
	 M988.6,773.2v-1.4c-1.2-2.9-2-6-2.5-9.1c-0.5-3.3-0.8-6.7-0.8-10.1v-43.9c0.1-4.8-0.8-9.5-2.6-13.9c-1.6-3.8-4.1-7.2-7.2-9.9
	c-3.2-2.7-7-4.8-11.1-5.9c-4.6-1.3-9.4-2-14.2-2c-5.3-0.1-10.5,0.8-15.5,2.5c-4.3,1.5-8.3,3.6-11.8,6.5c-3.1,2.4-5.7,5.5-7.5,8.9
	c-1.7,3.1-2.6,6.5-2.7,10h16.2c0-2,0.5-3.9,1.5-5.7c1-1.9,2.4-3.5,4.1-4.8c1.9-1.4,4.1-2.6,6.4-3.3c2.7-0.8,5.5-1.2,8.3-1.2
	c6.6,0,11.5,1.7,14.9,5c3.4,3.3,5.1,7.8,5.1,13.5v7.4h-16c-5.9-0.1-11.8,0.6-17.5,2c-4.8,1.1-9.3,3.1-13.4,5.9
	c-3.6,2.5-6.5,5.8-8.5,9.7c-2,4.2-3.1,8.8-3,13.4c0,3.8,0.7,7.5,2.3,10.9c1.5,3.4,3.7,6.4,6.4,8.9c2.9,2.6,6.3,4.6,10,5.9
	c4.2,1.5,8.7,2.2,13.1,2.2c2.8,0,5.6-0.3,8.3-0.9c2.5-0.6,5-1.4,7.3-2.5c2.2-1,4.3-2.3,6.2-3.7c1.8-1.4,3.5-2.9,5.1-4.5
	c0.2,1.9,0.5,3.8,0.9,5.5c0.3,1.5,0.7,3,1.4,4.4L988.6,773.2L988.6,773.2z M937.1,759.7c-2.1-0.8-4-1.9-5.7-3.4
	c-1.5-1.4-2.7-3.2-3.4-5.1c-0.8-2-1.2-4.2-1.1-6.4c-0.2-5.4,2.7-10.5,7.5-13c5-2.9,12.1-4.3,21.4-4.3h13.4v19.4
	c-0.9,1.9-2.2,3.7-3.6,5.2c-1.6,1.7-3.4,3.2-5.5,4.5c-2.2,1.3-4.5,2.4-7,3.2c-2.7,0.8-5.4,1.2-8.2,1.2
	C942.3,761,939.6,760.6,937.1,759.7L937.1,759.7z M1064.2,753.6c-0.9,1.7-2.3,3.2-3.9,4.3c-1.9,1.3-4.1,2.3-6.3,2.9
	c-2.8,0.7-5.8,1.1-8.7,1c-2.6,0-5.2-0.3-7.7-0.9c-2.5-0.6-4.9-1.6-7.1-3c-2.2-1.4-4-3.3-5.4-5.5c-1.5-2.5-2.3-5.4-2.4-8.3h-16.1
	c0,3.9,0.9,7.8,2.5,11.4c1.7,3.8,4.3,7.1,7.4,9.9c3.6,3,7.7,5.4,12.1,6.9c5.3,1.8,11,2.7,16.6,2.6c5,0.1,10.1-0.6,14.9-2
	c4.1-1.2,8-3.1,11.5-5.7c6.4-4.7,10.1-12.2,9.9-20.1c0.1-3.5-0.6-6.9-2.1-10.1c-1.5-3-3.6-5.7-6.2-7.7c-3.2-2.5-6.8-4.5-10.6-5.9
	c-4.9-1.9-9.9-3.4-15-4.5c-3.7-0.8-7.4-1.7-10.9-2.9c-2.4-0.7-4.6-1.8-6.7-3.1c-1.4-0.9-2.6-2.2-3.3-3.8c-0.6-1.5-0.9-3.1-0.9-4.7
	c0-1.8,0.4-3.5,1-5.1c0.7-1.7,1.9-3.2,3.3-4.4c1.7-1.4,3.7-2.5,5.8-3.1c2.8-0.8,5.7-1.2,8.6-1.2c2.9-0.1,5.8,0.4,8.5,1.4
	c2.3,0.9,4.4,2.1,6.2,3.7c1.6,1.5,2.9,3.2,3.8,5.2c0.8,1.8,1.3,3.8,1.3,5.8h16.2c0-4-0.8-7.9-2.4-11.5c-1.7-3.6-4.1-6.8-7.1-9.4
	c-3.3-2.8-7.2-4.9-11.3-6.3c-4.9-1.6-10-2.4-15.1-2.3c-4.9-0.1-9.8,0.7-14.4,2.2c-4,1.3-7.7,3.4-11,6c-2.9,2.4-5.3,5.4-7,8.8
	c-1.6,3.3-2.5,6.9-2.5,10.6c-0.1,3.5,0.7,7.1,2.4,10.2c1.6,3,4,5.6,6.8,7.5c3.3,2.3,6.9,4.1,10.7,5.5c4.6,1.6,9.3,2.9,14.1,3.9
	c3.8,0.8,7.6,1.8,11.3,3.2c2.4,0.9,4.6,2.2,6.6,3.8c1.4,1.2,2.5,2.7,3.1,4.4c0.5,1.6,0.8,3.3,0.8,4.9
	C1065.6,750.1,1065.1,751.9,1064.2,753.6L1064.2,753.6z M1108.5,656v22.9h-17.2v12.5h17.2v58.4c-0.1,4,0.5,8.1,1.7,11.9
	c1,2.9,2.6,5.6,4.7,7.8c1.9,2,4.3,3.4,6.9,4.2c2.7,0.9,5.6,1.3,8.4,1.3c2.5,0,5-0.2,7.4-0.6c2-0.4,3.7-0.8,5-1.1v-13.1
	c-0.8,0.2-2,0.4-3.4,0.7c-1.4,0.3-2.8,0.4-4.2,0.4c-1.3,0-2.6-0.1-3.9-0.4c-1.2-0.2-2.4-0.8-3.3-1.6c-1-0.9-1.8-2.1-2.3-3.4
	c-0.6-1.9-0.9-3.9-0.9-5.9v-58.5h17.6v-12.5h-17.6V656L1108.5,656L1108.5,656z M1212.9,773.5c3.5-0.9,6.8-2.3,9.9-4.1
	c2.8-1.6,5.3-3.6,7.5-5.8c2.1-2.1,3.9-4.3,5.5-6.8l-9.9-7.7c-2.8,3.7-6.4,6.9-10.4,9.2c-4.4,2.4-9.4,3.6-14.5,3.5
	c-7.8,0.2-15.2-3.2-20.3-9.1c-2.5-2.9-4.4-6.2-5.6-9.9c-1.3-3.9-2.1-8.1-2.1-12.2h63.9v-7.2c0.1-6.2-0.7-12.4-2.3-18.4
	c-1.4-5.3-3.7-10.3-7-14.7c-3.2-4.2-7.3-7.5-12.1-9.7c-5.5-2.5-11.4-3.7-17.4-3.5c-5.3,0-10.6,1.1-15.4,3.3c-5,2.2-9.5,5.4-13.2,9.5
	c-4,4.4-7.2,9.6-9.2,15.3c-2.4,6.6-3.6,13.6-3.4,20.6v3.7c-0.1,6.2,1,12.4,3.1,18.3c1.9,5.4,4.9,10.3,8.7,14.4
	c3.8,4.1,8.5,7.3,13.7,9.5c5.7,2.3,11.7,3.5,17.8,3.4C1204.5,775,1208.7,774.5,1212.9,773.5L1212.9,773.5z M1208.6,692.7
	c2.7,1.4,5,3.5,6.8,5.9c1.8,2.5,3.1,5.3,3.9,8.3c0.8,3,1.4,6.2,1.5,9.3v1.2h-47.3c0.4-4,1.4-7.9,2.9-11.6c1.3-3.1,3.1-6,5.4-8.5
	c4.2-4.5,10.1-7.1,16.3-7C1201.8,690.3,1205.4,691,1208.6,692.7z"/>
<path class="st2" d="M1044.4,455.8h-50.5c-6.1,0-11.1-5-11.1-11.1l0,0v-50.6c0-6.1,5-11.1,11.1-11.1c6.1,0,11.1,5,11.1,11.1
	c0,0,0,0,0,0v39.5h39.4c6.1,0,11.1,5,11.1,11.1C1055.5,450.8,1050.5,455.8,1044.4,455.8z M993.8,297.7c-6.1,0-11.1-5-11.1-11.1V236
	c0-6.1,5-11.1,11.1-11.1h50.5c6.1,0,11.1,5,11.1,11.1c0,6.1-5,11.1-11.1,11.1h-39.4v39.5C1004.9,292.8,1000,297.7,993.8,297.7z
	 M1201.6,297.7c-6.1,0-11.1-5-11.1-11.1v-39.5h-39.4c-6.1,0-11.1-5-11.1-11.1c0-6.1,5-11.1,11.1-11.1l0,0h50.5
	c6.1,0,11.1,5,11.1,11.1v50.6C1212.7,292.8,1207.8,297.7,1201.6,297.7L1201.6,297.7L1201.6,297.7z M1201.6,455.8h-50.5
	c-6.1,0-11.1-5-11.1-11.1c0-6.1,5-11.1,11.1-11.1h39.4v-39.5c0-6.1,5-11.1,11.1-11.1c6.1,0,11.1,5,11.1,11.1c0,0,0,0,0,0v50.6
	C1212.7,450.8,1207.8,455.8,1201.6,455.8C1201.6,455.8,1201.6,455.8,1201.6,455.8z M1226.3,351.4H970.1c-6.1,0-11.1-5-11.1-11.1
	c0-6.1,5-11.1,11.1-11.1h256.2c6.1,0,11.1,5,11.1,11.1C1237.4,346.5,1232.4,351.4,1226.3,351.4L1226.3,351.4z"/>
</svg>
